# xmcd
# Copyright (C) 1995-1998 Ti Kan
#
# Track frame offsets:
#       150
#       13125
#       30375
#       45675
#       62475
#       80175
#       95775
#       111750
#       141300
#       155925
#       170625
#       184050
#       198525
#       214950
#       232650
#       247500
#       263550
#
# Disc length: 3750 seconds
#
# Revision: 0
# Processed by: cddbd v1.5.2PL0 Copyright (c) Steve Scherf et al.
# Submitted via: CD-Transfer v1.0
#
DISCID=ec0ea411
DTITLE=Euro Express - 
DYEAR=08
DGENRE=
TTITLE0=Show Me Happiness (Radio Edit)
TTITLE1=Reset To Zero
TTITLE2=Mountains
TTITLE3=Put A Donk On It
TTITLE4=Move
TTITLE5=Slow Dance With A Stranger (Album Vers.)
TTITLE6=La Puerte Del Cielo (Radio Edit)
TTITLE7=Corporate Cannibal
TTITLE8=Girl I Love, The
TTITLE9=Undead
TTITLE10=I Wanna Be Your Man (Uk Vers.)
TTITLE11=Time For Dreams
TTITLE12=Back On The Road
TTITLE13=Ritornero
TTITLE14=World Long Gone (Clean Vers.)
TTITLE15=Jeune, Je Ne Savais Rien
TTITLE16=What's Your Problem
EXTD=
EXTT0=
EXTT1=
EXTT2=
EXTT3=
EXTT4=
EXTT5=
EXTT6=
EXTT7=
EXTT8=
EXTT9=
EXTT10=
EXTT11=
EXTT12=
EXTT13=
EXTT14=
EXTT15=
EXTT16=
PLAYORDER=
